<svg width="35" height="35" viewBox="0 0 35 35" fill="none" xmlns="http://www.w3.org/2000/svg">
<path d="M20.4167 2.91667H8.74999C7.97645 2.91667 7.23458 3.22396 6.6876 3.77094C6.14062 4.31792 5.83333 5.05978 5.83333 5.83333V29.1667C5.83333 29.9402 6.14062 30.6821 6.6876 31.2291C7.23458 31.776 7.97645 32.0833 8.74999 32.0833H26.25C27.0235 32.0833 27.7654 31.776 28.3124 31.2291C28.8594 30.6821 29.1667 29.9402 29.1667 29.1667V11.6667L20.4167 2.91667Z" stroke="black" stroke-width="2" stroke-linecap="round" stroke-linejoin="round"/>
<path d="M20.4167 2.91667V11.6667H29.1667" stroke="black" stroke-width="2" stroke-linecap="round" stroke-linejoin="round"/>
<path d="M23.3333 18.9583H11.6667" stroke="black" stroke-width="2" stroke-linecap="round" stroke-linejoin="round"/>
<path d="M23.3333 24.7917H11.6667" stroke="black" stroke-width="2" stroke-linecap="round" stroke-linejoin="round"/>
<path d="M14.5833 13.125H13.125H11.6667" stroke="black" stroke-width="2" stroke-linecap="round" stroke-linejoin="round"/>
</svg>
